<svg xmlns="http://www.w3.org/2000/svg" xmlns:xlink="http://www.w3.org/1999/xlink" version="1.1" x="0px" y="0px" viewBox="0 0 512 640" style="enable-background:new 0 0 512 512;" xml:space="preserve"><style type="text/css">
	.st0{display:none;}
</style><g><g><g><path fill="#0096C7" d="M302.3105469,2h-83.6904297c-19.7226562,0-38.2597656,7.6757812-52.1972656,21.6123047     c-13.9433594,13.9443359-21.6230469,32.4824219-21.6230469,52.1982422v43.359375     c0,27.4384766,20.4941406,50.7626953,47.6708984,54.2548828c1.5390625,0.1972656,3.1083984-0.0566406,4.5087891-0.7353516     c2.3496094-1.1386719,5.1904297-1.0771484,7.5830078,0.1601562     c21.4072266,11.1171875,67.6611328,24.3701172,166.4472656,24.3701172c9.1542969,0,17.7607422,3.5644531,24.234375,10.0371094     c1.5302734,1.5302734,3.5761719,2.3427734,5.6582031,2.3427734c1.0302734,0,2.0703125-0.1992188,3.0595703-0.609375     c2.9892578-1.2382812,4.9384766-4.1552734,4.9384766-7.390625v-93.0097656C408.9003906,49.8164062,361.0839844,2,302.3105469,2z"/><g><path fill="#0096C7" d="M128.7998047,119.1699219v-43.359375c0-0.6118164,0.0322266-1.21875,0.0444336-1.8286133      c-15.3334961,8.472168-25.7446289,24.8046875-25.7446289,43.527832v84.0898438      c0,3.2353516,1.9492188,6.1523438,4.9384766,7.390625c0.9902344,0.4101562,2.0292969,0.609375,3.0595703,0.609375      c2.0820312,0,4.1279297-0.8125,5.6582031-2.3427734c6.4736328-6.4726562,15.0800781-10.0371094,24.234375-10.0371094      c18.5249023,0,31.2958984-4.2368164,40.0786133-9.7851562      C150.6948242,179.2421875,128.7998047,151.4047852,128.7998047,119.1699219z"/></g><g><path fill="#0096C7" d="M410.0898438,223.7700195c-2.9277344,1.2138672-6.0187988,1.8295898-9.1875,1.8295898      c-2.0136719,0-3.9892578-0.2470703-5.8925781-0.7250977v34.2456055c0,5.7460938-0.3481445,11.4384766-1.0305176,17.0537109      c16.1953125-8.355957,27.3010254-25.2421875,27.3010254-44.6835938c0-4.9370117-0.7126465-9.7631836-2.0783691-14.3671875      C416.786377,219.9672852,413.7004395,222.2744141,410.0898438,223.7700195z"/></g><g><path fill="#0096C7" d="M116.9902344,224.8745117c-1.9033203,0.4780273-3.8789062,0.7250977-5.8925781,0.7250977      c-3.1657715,0-6.255127-0.6147461-9.1828613-1.8276367c-3.612793-1.496582-6.7001953-3.8041992-9.1164551-6.6494141      c-1.3657227,4.6040039-2.0786133,9.4306641-2.0786133,14.3676758c0,19.4501953,11.1157227,36.3427734,27.3227539,44.6948242      c-0.6828613-5.6123047-1.0522461-11.3046875-1.0522461-17.0649414V224.8745117z"/></g><g><path fill="#0096C7" d="M267.2470703,318.8583984v-19.5546875c0-1.8740234-1.5253906-3.3994141-3.4003906-3.3994141h-14.7265625      c-1.875,0-3.4003906,1.5253906-3.4003906,3.3994141v19.5546875c0,1.875,1.5253906,3.4003906,3.4003906,3.4003906h14.7265625      C265.7216797,322.2587891,267.2470703,320.7333984,267.2470703,318.8583984z"/><path fill="#0096C7" d="M321.5380859,269.4863281c9.4013672,14.9145508,25.7595215,41.1518555,36.4943848,58.3925781      c13.640625-20.1445312,20.9772949-43.8847656,20.9772949-68.7587891v-37.75      c0-4.4101562-3.5053711-8.1298828-7.9155273-8.1503906c-0.0280762,0-0.0561523,0-0.0844727,0      c-4.3017578,0-8.5239258-0.0332031-12.7053223-0.0830078l-44.8620605,44.6035156      C316.154541,261.2519531,318.8088379,265.15625,321.5380859,269.4863281z"/><path fill="#0096C7" d="M190.4619141,269.4863281c2.7294922-4.3300781,5.3840332-8.234375,8.0964355-11.746582L153.1813965,212.625      c-3.9206543,0.3881836-7.9799805,0.5947266-12.1911621,0.5947266c-2.8215332,0-5.5371094,0.6538086-8,1.8564453v44.0439453      c0,24.2099609,6.9777832,47.1728516,19.4985352,66.6201172      C163.1848145,310.3774414,180.7006836,284.972168,190.4619141,269.4863281z"/><path fill="#0096C7" d="M209.6030273,246.1586914C220.3447266,237.4594727,233.90625,233.3974609,256,233.3974609      c22.0942383,0,35.6560059,4.0620117,46.3979492,12.7612305l33.7336426-33.5390625      c-30.5708008-1.0839844-57.439209-3.6435547-80.1494141-7.6606445      c-20.1062012-3.5561523-37.0463867-8.262207-50.5109863-14.0151367l-15.8569336,10.0175781      c-5.2558594,3.3203125-11.1020508,5.9609375-17.4882812,7.9370117L209.6030273,246.1586914z"/><path fill="#0096C7" d="M248,338.2021484c-10.1750488-0.5854492-18.2802734-9.0244141-18.2802734-19.34375v-19.5546875      c0-10.6972656,8.703125-19.3994141,19.4003906-19.3994141h14.7265625c10.6972656,0,19.4003906,8.7021484,19.4003906,19.3994141      v19.5546875c0,10.6455078-8.6208496,19.309082-19.2470703,19.3925781v43.6499023      c16.369873-1.0283203,32.7451172-5.722168,47.3867188-12.9204102      c11.6923828-5.9042969,22.3222656-13.6054688,31.5888672-22.8828125      c1.5683594-1.5673828,3.0852051-3.1728516,4.5578613-4.8085938      c-10.4147949-16.7329102-29.1936035-46.8720703-39.5305176-63.2714844      c-3.8911133-6.1733398-7.3598633-11.1240234-10.9760742-15.0595703      c-0.0302734-0.0297852-0.0632324-0.0546875-0.0932617-0.0849609c-0.1083984-0.1088867-0.2038574-0.2255859-0.3046875-0.3393555      C287.359375,252.6674805,276.9907227,249.3974609,256,249.3974609c-20.9797363,0-31.348877,3.2666016-40.6149902,13.1220703      c-0.1047363,0.1186523-0.2045898,0.2397461-0.317627,0.3535156c-0.0314941,0.0317383-0.065918,0.0581055-0.0979004,0.0888672      c-3.6147461,3.9350586-7.0825195,8.8847656-10.9724121,15.0556641      c-11.0708008,17.5644531-31.2756348,46.7148438-41.4221191,61.2363281      c10.387207,12.0771484,23.2172852,22.2431641,38.0627441,29.7392578      C215.3364258,376.4355469,231.5654297,380.8085938,248,381.8686523V338.2021484z"/></g><g><path fill="#0096C7" d="M324.5078125,395.4726562c0.0976562-0.3115234,3.345459-7.3564453,3.345459-7.3564453      c-2.4528809-0.8569336-4.7124023-1.6430664-6.7038574-2.3330078c-0.0129395-0.0043945-0.0258789-0.0087891-0.0385742-0.0136719      c-2.7143555-0.956543-5.6577148-0.9770508-8.2902832,0.1855469C296.9677734,392.956543,280.3071289,397.0405273,264,397.9291992      v25.800293C313.5922852,421.362793,323.8300781,397.2294922,324.5078125,395.4726562z"/><path fill="#0096C7" d="M248,397.8955078c-16.8666992-0.9667969-33.550293-5.0307617-48.8771973-11.9111328      c-2.6098633-1.1713867-5.5344238-1.1655273-8.232666-0.2148438c-0.0129395,0.0048828-0.0256348,0.0092773-0.0385742,0.0136719      c-1.9916992,0.6904297-4.251709,1.4765625-6.704834,2.3334961c0,0,3.2478027,7.0444336,3.345459,7.355957      C188.1699219,397.2294922,198.4077148,421.362793,248,423.7294922V397.8955078z"/></g><g><path fill="#0096C7" d="M371.3500977,440.5600586c0-12.2099609,3.2900391-23.6699219,9.0200195-33.5302734      c-13.4301758-5-26.3601074-9.6699219-37.3601074-13.5698242l-3.5500488,7.7001953      C337.6298828,405.8701172,323.2600098,437.1499023,264,439.7402344v0.8295898      c0,14.3300781,5.5900879,27.7900391,15.7299805,37.9101562c10.1101074,10.1000977,23.5500488,15.6499023,37.8300781,15.6499023      h0.3598633C347.3798828,494.0698242,371.3500977,470.0400391,371.3500977,440.5600586z"/><path fill="#0096C7" d="M509.6699219,499.7299805c-0.5297852-1.8100586-13.6999512-44.5800781-65.5898438-67.3701172      c-14.2099609-6.2299805-31.3100586-13.0600586-48.4599609-19.5898438c-5.2299805,8-8.2700195,17.5498047-8.2700195,27.7900391      c0,36.9199219-28.9702148,67.2597656-65.3601074,69.4399414H502c2.5200195,0,4.8999023-1.1899414,6.4099121-3.2099609      S510.3901367,502.1499023,509.6699219,499.7299805z"/><path fill="#0096C7" d="M248,440.5698242v-0.8295898c-59.2600098-2.590332-73.6298828-33.8701172-75.4599609-38.5800781l-3.5500488-7.7001953      C140.0200195,403.75,97.6298828,419.3100586,67.9199219,432.3598633      c-51.8898926,22.7900391-65.0600586,65.5600586-65.5898438,67.3701172c-0.7202148,2.4199219-0.25,5.0400391,1.2600098,7.0600586      S7.4799805,510,10,510h303.3000488c-16.9401855-1.0097656-32.7399902-8.0898438-44.8701172-20.1899414      C255.25,476.6601562,248,459.1801758,248,440.5698242z"/></g><path fill="#0096C7" d="M510,381.6098633c0,4.4199219-3.5800781,8-8,8h-63.6899414c-17.8500977,0-33.5900879,9.2299805-42.6899414,23.1601562     c-5.1101074-1.9501953-10.2202148-3.8701172-15.25-5.7402344c11.5998535-19.9697266,33.2299805-33.4199219,57.9399414-33.4199219     H502C506.4199219,373.6098633,510,377.1899414,510,381.6098633z"/></g></g></g><text x="0" y="527" fill="#0096C7" font-size="5px" font-weight="bold" font-family="'Helvetica Neue', Helvetica, Arial-Unicode, Arial, Sans-serif"></text><text x="0" y="532" fill="#0096C7" font-size="5px" font-weight="bold" font-family="'Helvetica Neue', Helvetica, Arial-Unicode, Arial, Sans-serif"></text></svg>